<svg width="18" height="18" viewBox="0 0 18 18" fill="none" xmlns="http://www.w3.org/2000/svg">
<path d="M12.5334 5.4582C11.5584 4.4832 10.2834 3.99154 9.00008 3.99154V8.99154L5.46675 12.5249C7.41675 14.4749 10.5834 14.4749 12.5417 12.5249C14.4917 10.5749 14.4917 7.4082 12.5334 5.4582ZM9.00008 0.658203C4.40008 0.658203 0.666748 4.39154 0.666748 8.99154C0.666748 13.5915 4.40008 17.3249 9.00008 17.3249C13.6001 17.3249 17.3334 13.5915 17.3334 8.99154C17.3334 4.39154 13.6001 0.658203 9.00008 0.658203ZM9.00008 15.6582C5.31675 15.6582 2.33341 12.6749 2.33341 8.99154C2.33341 5.3082 5.31675 2.32487 9.00008 2.32487C12.6834 2.32487 15.6667 5.3082 15.6667 8.99154C15.6667 12.6749 12.6834 15.6582 9.00008 15.6582Z" fill="#071015"/>
</svg>
